<!DOCTYPE svg PUBLIC "-//W3C//DTD SVG 1.1//EN" "http://www.w3.org/Graphics/SVG/1.1/DTD/svg11.dtd">
<!-- Uploaded to: SVG Repo, www.svgrepo.com, Transformed by: SVG Repo Mixer Tools -->
<svg fill="#f20202" width="800px" height="800px" viewBox="0 0 32 32" version="1.1" xmlns="http://www.w3.org/2000/svg" stroke="#f20202" transform="matrix(1, 0, 0, 1, 0, 0)">
<g id="SVGRepo_bgCarrier" stroke-width="0"/>
<g id="SVGRepo_tracerCarrier" stroke-linecap="round" stroke-linejoin="round" stroke="#CCCCCC" stroke-width="0.064"/>
<g id="SVGRepo_iconCarrier"> <title>flame-symbol</title> <path d="M10.375 7.562c0 5.625 5.625 6.563 5.625 11.25 0 1.875-1.875 4.687-4.687 4.687s-4.687-2.813-2.813-7.5c-2.813 1.875-3.75 3.75-3.75 5.625 0 4.688 4.687 9.375 11.25 9.375s11.25-2.812 11.25-8.438c0.042-8.32-9.587-11.1-12.188-15-1.875-2.813-0.937-4.688 0.937-6.563-3.75 0.938-5.625 3.563-5.625 6.563v0z"/> </g>
</svg>